<svg width="673" height="22" viewBox="0 0 673 22" fill="none" xmlns="http://www.w3.org/2000/svg">
<line y1="10.5" x2="292" y2="10.5" stroke="#BFBFBF"/>
<line x1="385" y1="10.5" x2="673" y2="10.5" stroke="#BFBFBF"/>
<path d="M333.288 17.112C332.253 17.112 331.309 16.872 330.456 16.392C329.603 15.9013 328.925 15.224 328.424 14.36C327.933 13.4853 327.688 12.504 327.688 11.416C327.688 10.328 327.933 9.352 328.424 8.488C328.925 7.61333 329.603 6.936 330.456 6.456C331.309 5.96533 332.253 5.72 333.288 5.72C334.333 5.72 335.283 5.96533 336.136 6.456C336.989 6.936 337.661 7.608 338.152 8.472C338.643 9.336 338.888 10.3173 338.888 11.416C338.888 12.5147 338.643 13.496 338.152 14.36C337.661 15.224 336.989 15.9013 336.136 16.392C335.283 16.872 334.333 17.112 333.288 17.112ZM333.288 15.848C334.067 15.848 334.765 15.6667 335.384 15.304C336.013 14.9413 336.504 14.424 336.856 13.752C337.219 13.08 337.4 12.3013 337.4 11.416C337.4 10.52 337.219 9.74133 336.856 9.08C336.504 8.408 336.019 7.89067 335.4 7.528C334.781 7.16533 334.077 6.984 333.288 6.984C332.499 6.984 331.795 7.16533 331.176 7.528C330.557 7.89067 330.067 8.408 329.704 9.08C329.352 9.74133 329.176 10.52 329.176 11.416C329.176 12.3013 329.352 13.08 329.704 13.752C330.067 14.424 330.557 14.9413 331.176 15.304C331.805 15.6667 332.509 15.848 333.288 15.848ZM346.682 17L344.026 12.44H342.266V17H340.81V5.848H344.41C345.253 5.848 345.962 5.992 346.538 6.28C347.125 6.568 347.562 6.95733 347.85 7.448C348.138 7.93867 348.282 8.49867 348.282 9.128C348.282 9.896 348.058 10.5733 347.61 11.16C347.173 11.7467 346.511 12.136 345.626 12.328L348.426 17H346.682ZM342.266 11.272H344.41C345.199 11.272 345.791 11.08 346.186 10.696C346.581 10.3013 346.778 9.77867 346.778 9.128C346.778 8.46667 346.581 7.95467 346.186 7.592C345.802 7.22933 345.21 7.048 344.41 7.048H342.266V11.272Z" fill="#2F2F2F"/>
</svg>
